<mxfile host="Electron" agent="Mozilla/5.0 (Windows NT 10.0; Win64; x64) AppleWebKit/537.36 (KHTML, like Gecko) draw.io/24.7.17 Chrome/128.0.6613.36 Electron/32.0.1 Safari/537.36" version="24.7.17">
  <diagram name="Page-1" id="C9lZvIP9pW5uWvlMifLZ">
    <mxGraphModel dx="1509" dy="880" grid="1" gridSize="10" guides="1" tooltips="1" connect="1" arrows="1" fold="1" page="1" pageScale="1" pageWidth="3300" pageHeight="4681" math="0" shadow="0">
      <root>
        <mxCell id="0" />
        <mxCell id="1" parent="0" />
        <mxCell id="CixBNzFHCBHnXeRrfH5r-7" value="" style="edgeStyle=orthogonalEdgeStyle;rounded=0;orthogonalLoop=1;jettySize=auto;html=1;" edge="1" parent="1" source="CixBNzFHCBHnXeRrfH5r-1" target="CixBNzFHCBHnXeRrfH5r-3">
          <mxGeometry relative="1" as="geometry" />
        </mxCell>
        <mxCell id="CixBNzFHCBHnXeRrfH5r-1" value="&lt;font style=&quot;font-size: 24px;&quot;&gt;Bắt đầu&lt;/font&gt;" style="ellipse;whiteSpace=wrap;html=1;" vertex="1" parent="1">
          <mxGeometry x="660" y="60" width="180" height="130" as="geometry" />
        </mxCell>
        <mxCell id="CixBNzFHCBHnXeRrfH5r-8" value="" style="edgeStyle=orthogonalEdgeStyle;rounded=0;orthogonalLoop=1;jettySize=auto;html=1;" edge="1" parent="1" source="CixBNzFHCBHnXeRrfH5r-3" target="CixBNzFHCBHnXeRrfH5r-4">
          <mxGeometry relative="1" as="geometry" />
        </mxCell>
        <mxCell id="CixBNzFHCBHnXeRrfH5r-3" value="&lt;font style=&quot;font-size: 24px;&quot;&gt;Khai báo biến X, biến Count và gán biến Count = 0&lt;/font&gt;" style="rounded=0;whiteSpace=wrap;html=1;" vertex="1" parent="1">
          <mxGeometry x="607.5" y="300" width="285" height="130" as="geometry" />
        </mxCell>
        <mxCell id="CixBNzFHCBHnXeRrfH5r-17" style="edgeStyle=orthogonalEdgeStyle;rounded=0;orthogonalLoop=1;jettySize=auto;html=1;entryX=0.5;entryY=0;entryDx=0;entryDy=0;" edge="1" parent="1" source="CixBNzFHCBHnXeRrfH5r-4" target="CixBNzFHCBHnXeRrfH5r-16">
          <mxGeometry relative="1" as="geometry" />
        </mxCell>
        <mxCell id="CixBNzFHCBHnXeRrfH5r-4" value="&lt;font style=&quot;font-size: 24px;&quot;&gt;&lt;font style=&quot;&quot;&gt;Nhập &lt;/font&gt;X&lt;/font&gt;" style="shape=parallelogram;perimeter=parallelogramPerimeter;whiteSpace=wrap;html=1;fixedSize=1;" vertex="1" parent="1">
          <mxGeometry x="645" y="530" width="210" height="90" as="geometry" />
        </mxCell>
        <mxCell id="CixBNzFHCBHnXeRrfH5r-10" style="edgeStyle=orthogonalEdgeStyle;rounded=0;orthogonalLoop=1;jettySize=auto;html=1;" edge="1" parent="1" source="CixBNzFHCBHnXeRrfH5r-5" target="CixBNzFHCBHnXeRrfH5r-6">
          <mxGeometry relative="1" as="geometry" />
        </mxCell>
        <mxCell id="CixBNzFHCBHnXeRrfH5r-32" style="edgeStyle=orthogonalEdgeStyle;rounded=0;orthogonalLoop=1;jettySize=auto;html=1;" edge="1" parent="1" target="CixBNzFHCBHnXeRrfH5r-23">
          <mxGeometry relative="1" as="geometry">
            <mxPoint x="930.6300000000006" y="770" as="sourcePoint" />
            <mxPoint x="1143.5714285714284" y="770" as="targetPoint" />
            <Array as="points">
              <mxPoint x="1036" y="771" />
            </Array>
          </mxGeometry>
        </mxCell>
        <mxCell id="CixBNzFHCBHnXeRrfH5r-5" value="&lt;font style=&quot;font-size: 24px;&quot;&gt;Dùng vòng lặp for, khai báo biến i = 0, lặp đến khi i nhỏ hơn hoặc bằng căn X&lt;/font&gt;" style="rounded=0;whiteSpace=wrap;html=1;" vertex="1" parent="1">
          <mxGeometry x="569.38" y="725" width="361.25" height="170" as="geometry" />
        </mxCell>
        <mxCell id="CixBNzFHCBHnXeRrfH5r-13" value="" style="edgeStyle=orthogonalEdgeStyle;rounded=0;orthogonalLoop=1;jettySize=auto;html=1;entryX=0.5;entryY=0;entryDx=0;entryDy=0;" edge="1" parent="1" source="CixBNzFHCBHnXeRrfH5r-6" target="CixBNzFHCBHnXeRrfH5r-11">
          <mxGeometry relative="1" as="geometry">
            <mxPoint x="750" y="1360" as="targetPoint" />
          </mxGeometry>
        </mxCell>
        <mxCell id="CixBNzFHCBHnXeRrfH5r-37" style="edgeStyle=orthogonalEdgeStyle;rounded=0;orthogonalLoop=1;jettySize=auto;html=1;exitX=0;exitY=0.5;exitDx=0;exitDy=0;entryX=0.75;entryY=0;entryDx=0;entryDy=0;" edge="1" parent="1" source="CixBNzFHCBHnXeRrfH5r-6" target="CixBNzFHCBHnXeRrfH5r-18">
          <mxGeometry relative="1" as="geometry">
            <mxPoint x="510" y="1470" as="targetPoint" />
            <Array as="points">
              <mxPoint x="420" y="1140" />
              <mxPoint x="420" y="1300" />
              <mxPoint x="312" y="1300" />
            </Array>
          </mxGeometry>
        </mxCell>
        <mxCell id="CixBNzFHCBHnXeRrfH5r-6" value="&lt;font style=&quot;font-size: 24px;&quot;&gt;Nếu biến Count có giá trị là 0&lt;/font&gt;" style="rhombus;whiteSpace=wrap;html=1;" vertex="1" parent="1">
          <mxGeometry x="578.75" y="1030" width="345" height="220" as="geometry" />
        </mxCell>
        <mxCell id="CixBNzFHCBHnXeRrfH5r-15" style="edgeStyle=orthogonalEdgeStyle;rounded=0;orthogonalLoop=1;jettySize=auto;html=1;entryX=0.5;entryY=0;entryDx=0;entryDy=0;" edge="1" parent="1" source="CixBNzFHCBHnXeRrfH5r-11" target="CixBNzFHCBHnXeRrfH5r-14">
          <mxGeometry relative="1" as="geometry" />
        </mxCell>
        <mxCell id="CixBNzFHCBHnXeRrfH5r-11" value="&lt;font style=&quot;font-size: 24px;&quot;&gt;In X là số nguyên tố&lt;/font&gt;" style="shape=parallelogram;perimeter=parallelogramPerimeter;whiteSpace=wrap;html=1;fixedSize=1;" vertex="1" parent="1">
          <mxGeometry x="618.13" y="1400" width="266.25" height="120" as="geometry" />
        </mxCell>
        <mxCell id="CixBNzFHCBHnXeRrfH5r-14" value="&lt;font style=&quot;font-size: 24px;&quot;&gt;Kết thúc&lt;/font&gt;" style="ellipse;whiteSpace=wrap;html=1;" vertex="1" parent="1">
          <mxGeometry x="660" y="1640" width="180" height="130" as="geometry" />
        </mxCell>
        <mxCell id="CixBNzFHCBHnXeRrfH5r-36" style="edgeStyle=orthogonalEdgeStyle;rounded=0;orthogonalLoop=1;jettySize=auto;html=1;" edge="1" parent="1" source="CixBNzFHCBHnXeRrfH5r-16">
          <mxGeometry relative="1" as="geometry">
            <mxPoint x="235" y="1390" as="targetPoint" />
          </mxGeometry>
        </mxCell>
        <mxCell id="CixBNzFHCBHnXeRrfH5r-41" style="edgeStyle=orthogonalEdgeStyle;rounded=0;orthogonalLoop=1;jettySize=auto;html=1;exitX=1;exitY=0.5;exitDx=0;exitDy=0;entryX=0;entryY=0.5;entryDx=0;entryDy=0;" edge="1" parent="1" source="CixBNzFHCBHnXeRrfH5r-16" target="CixBNzFHCBHnXeRrfH5r-5">
          <mxGeometry relative="1" as="geometry" />
        </mxCell>
        <mxCell id="CixBNzFHCBHnXeRrfH5r-16" value="&lt;font style=&quot;font-size: 24px;&quot;&gt;Nếu X&amp;nbsp; nhỏ hơn hoặc bằng 1&lt;/font&gt;" style="rhombus;whiteSpace=wrap;html=1;" vertex="1" parent="1">
          <mxGeometry x="90" y="702.5" width="290" height="215" as="geometry" />
        </mxCell>
        <mxCell id="CixBNzFHCBHnXeRrfH5r-20" style="edgeStyle=orthogonalEdgeStyle;rounded=0;orthogonalLoop=1;jettySize=auto;html=1;entryX=0;entryY=0.5;entryDx=0;entryDy=0;" edge="1" parent="1" source="CixBNzFHCBHnXeRrfH5r-18" target="CixBNzFHCBHnXeRrfH5r-14">
          <mxGeometry relative="1" as="geometry">
            <Array as="points">
              <mxPoint x="240" y="1705" />
            </Array>
          </mxGeometry>
        </mxCell>
        <mxCell id="CixBNzFHCBHnXeRrfH5r-18" value="&lt;font style=&quot;font-size: 24px;&quot;&gt;In X không phải là số nguyên tố&lt;/font&gt;" style="shape=parallelogram;perimeter=parallelogramPerimeter;whiteSpace=wrap;html=1;fixedSize=1;" vertex="1" parent="1">
          <mxGeometry x="110" y="1390" width="270" height="130" as="geometry" />
        </mxCell>
        <mxCell id="CixBNzFHCBHnXeRrfH5r-26" style="edgeStyle=orthogonalEdgeStyle;rounded=0;orthogonalLoop=1;jettySize=auto;html=1;" edge="1" parent="1" source="CixBNzFHCBHnXeRrfH5r-23">
          <mxGeometry relative="1" as="geometry">
            <mxPoint x="1315.0000000000005" y="1090" as="targetPoint" />
          </mxGeometry>
        </mxCell>
        <mxCell id="CixBNzFHCBHnXeRrfH5r-23" value="&lt;font style=&quot;font-size: 24px;&quot;&gt;Nếu X chia hết cho i dư 0&lt;/font&gt;" style="rhombus;whiteSpace=wrap;html=1;" vertex="1" parent="1">
          <mxGeometry x="1140" y="690" width="350" height="245" as="geometry" />
        </mxCell>
        <mxCell id="CixBNzFHCBHnXeRrfH5r-25" value="&lt;font style=&quot;font-size: 24px;&quot;&gt;Tăng biến Count lên 1&lt;/font&gt;" style="rounded=0;whiteSpace=wrap;html=1;" vertex="1" parent="1">
          <mxGeometry x="1143.75" y="1090" width="342.5" height="160" as="geometry" />
        </mxCell>
        <mxCell id="CixBNzFHCBHnXeRrfH5r-30" value="&lt;font style=&quot;font-size: 24px;&quot;&gt;TRUE&lt;/font&gt;" style="text;html=1;align=center;verticalAlign=middle;whiteSpace=wrap;rounded=0;" vertex="1" parent="1">
          <mxGeometry x="1310" y="980" width="140" height="60" as="geometry" />
        </mxCell>
        <mxCell id="CixBNzFHCBHnXeRrfH5r-34" style="edgeStyle=orthogonalEdgeStyle;rounded=0;orthogonalLoop=1;jettySize=auto;html=1;exitX=0;exitY=1;exitDx=0;exitDy=0;entryX=0.998;entryY=0.875;entryDx=0;entryDy=0;entryPerimeter=0;" edge="1" parent="1" source="CixBNzFHCBHnXeRrfH5r-23" target="CixBNzFHCBHnXeRrfH5r-5">
          <mxGeometry relative="1" as="geometry" />
        </mxCell>
        <mxCell id="CixBNzFHCBHnXeRrfH5r-35" value="&lt;font style=&quot;font-size: 24px;&quot;&gt;FALSE&lt;/font&gt;" style="text;html=1;align=center;verticalAlign=middle;whiteSpace=wrap;rounded=0;" vertex="1" parent="1">
          <mxGeometry x="990" y="880" width="140" height="60" as="geometry" />
        </mxCell>
        <mxCell id="CixBNzFHCBHnXeRrfH5r-38" value="&lt;font style=&quot;font-size: 24px;&quot;&gt;FALSE&lt;/font&gt;" style="text;html=1;align=center;verticalAlign=middle;whiteSpace=wrap;rounded=0;" vertex="1" parent="1">
          <mxGeometry x="438.75" y="1090" width="140" height="60" as="geometry" />
        </mxCell>
        <mxCell id="CixBNzFHCBHnXeRrfH5r-39" value="&lt;font style=&quot;font-size: 24px;&quot;&gt;TRUE&lt;/font&gt;" style="text;html=1;align=center;verticalAlign=middle;whiteSpace=wrap;rounded=0;" vertex="1" parent="1">
          <mxGeometry x="730" y="1290" width="140" height="60" as="geometry" />
        </mxCell>
        <mxCell id="CixBNzFHCBHnXeRrfH5r-40" value="&lt;font style=&quot;font-size: 24px;&quot;&gt;TRUE&lt;/font&gt;" style="text;html=1;align=center;verticalAlign=middle;whiteSpace=wrap;rounded=0;" vertex="1" parent="1">
          <mxGeometry x="120" y="1110" width="140" height="60" as="geometry" />
        </mxCell>
        <mxCell id="CixBNzFHCBHnXeRrfH5r-42" value="&lt;font style=&quot;font-size: 24px;&quot;&gt;FALSE&lt;/font&gt;" style="text;html=1;align=center;verticalAlign=middle;whiteSpace=wrap;rounded=0;" vertex="1" parent="1">
          <mxGeometry x="410" y="760" width="140" height="60" as="geometry" />
        </mxCell>
      </root>
    </mxGraphModel>
  </diagram>
</mxfile>
